# xmcd CD database file generated by Grip 3.0.7
# 
# Track frame offsets:
#       150
#       22009
#       38591
#       62162
#       87668
#       107919
#       130286
#       148311
#       171518
#       192096
#       211313
#       232968
#       261244
# 
# Disc length: 3682 seconds
# 
# Revision: 1
# Processed by: cddbd v1.5.1PL0 Copyright (c) Steve Scherf et al.
# Submitted via: Grip 3.0.7
# 
DISCID=c40e600d
DTITLE=Lisa Wahlandt and Mulo Francel - Bossa Nova Affair
DYEAR=2002
DGENRE=Jazz
TTITLE0=Little Boat
TTITLE1=O Meu Amor
TTITLE2=As Everybody Sees I'm Old Fashioned
TTITLE3=Voce E Linda
TTITLE4=Berimbau
TTITLE5=Only Trust Your Heart
TTITLE6=Soiree Mignonne
TTITLE7=Un Homme Et Une Femme
TTITLE8=Recado Bossa Nova
TTITLE9=Greensleeves
TTITLE10=Tu Es A Flor
TTITLE11=Senhor Gor
TTITLE12=The Shadow Of Your Smile
EXTD=YEAR: 2002
EXTT0=
EXTT1=
EXTT2=
EXTT3=
EXTT4=
EXTT5=
EXTT6=
EXTT7=
EXTT8=
EXTT9=
EXTT10=
EXTT11=
EXTT12=
PLAYORDER=
